<svg xmlns="http://www.w3.org/2000/svg" xmlns:svg="http://www.w3.org/2000/svg" xmlns:xlink="http://www.w3.org/1999/xlink" id="svg8" width="_MAINWIDTH_" height="17" version="1.1" viewBox="0 0 _MAINWIDTH_ 17" style="shape-rendering:crispEdges"><defs id="defs2"><linearGradient id="linearGradient823"><stop style="stop-color:_LIGHT_;stop-opacity:.4" id="stop819" offset="0"/><stop style="stop-color:_FIELDBG_;stop-opacity:.4" id="stop821" offset="1"/></linearGradient><linearGradient id="linearGradient825" x1=".295" x2="2.872" y1="294.151" y2="296.674" gradientTransform="matrix(5.4482956,0,0,5.5000015,-0.28145989,-1332.137)" gradientUnits="userSpaceOnUse" xlink:href="#linearGradient823"/></defs><metadata id="metadata5"/><g id="layer1" transform="translate(0.13229197,-284.13223)"><rect style="opacity:1;fill:url(#linearGradient825);fill-opacity:1;stroke:_CBBORD_;stroke-width:1;stroke-miterlimit:4;stroke-dasharray:none;stroke-opacity:.4" id="rect814" width="16" height="16" x=".536" y="284.801"/><g aria-label="✔" transform="scale(0.9478328,1.0550384)" style="font-style:normal;font-weight:400;font-size:19.16766357px;line-height:1.25;font-family:sans-serif;letter-spacing:0;word-spacing:0;fill:_ACCENT_;fill-opacity:1;stroke:none;stroke-width:0" id="text817"><path d="m 5.047132,276.81424 q 0.3650093,0 0.5521935,0.59899 0.3743684,1.1231 0.533475,1.1231 0.1216697,0 0.2526987,-0.18718 2.6299382,-3.86535 4.8667898,-5.50322 0.94528,-0.69258 1.843764,-0.69258 1.18862,0 1.43196,0.0749 0.102951,0.0281 0.102951,0.23398 0,0.16846 -0.215262,0.42116 -6.0179725,6.9071 -7.1691554,8.98484 -0.3930869,0.7113 -1.8156869,0.7113 -0.4679606,0 -0.9827171,-0.24334 -0.2152619,-0.11231 -0.7487369,-1.43196 -0.6738632,-1.66593 -0.6738632,-2.92007 0,-0.4586 0.6551448,-0.7581 0.8984842,-0.4118 1.3477263,-0.4118 z" style="fill:_ACCENT_;fill-opacity:.4;stroke-width:0" id="path822"/></g></g></svg>