<svg xmlns="http://www.w3.org/2000/svg" xmlns:svg="http://www.w3.org/2000/svg" id="svg4152" width="_MAINWIDTH_" height="17" version="1.1" viewBox="0 0 _MAINWIDTH_ 17"><metadata id="metadata4157"/><g id="layer1" transform="translate(-0.12256804,-47.194799)"><rect style="fill:_CBBG_;fill-opacity:.4;stroke:_CBBORD_;stroke-width:1;stroke-miterlimit:4;stroke-dasharray:none;stroke-opacity:.4" id="rect9014" width="16" height="16" x=".586" y="47.659" ry="2.836"/><g aria-label="✔" transform="scale(0.94783288,1.0550383)" style="font-style:normal;font-weight:400;font-size:17.42514992px;line-height:1.25;font-family:sans-serif;letter-spacing:0;word-spacing:0;fill:_ACCENT_;fill-opacity:.4;stroke:none;stroke-width:0" id="text9056"><path d="m 5.6597566,52.287366 q 0.3318266,0 0.5019941,0.544536 0.3403349,1.021004 0.4849773,1.021004 0.1106089,0 0.2297261,-0.170167 2.3908531,-3.513959 4.4243549,-5.002924 0.859345,-0.62962 1.676149,-0.62962 1.080564,0 1.301781,0.06807 0.09359,0.02553 0.09359,0.21271 0,0.15315 -0.195693,0.382877 -5.4708845,6.27918 -6.5174145,8.168039 -0.3573517,0.646636 -1.6506246,0.646636 -0.4254187,0 -0.8933792,-0.221218 -0.1956926,-0.1021 -0.6806699,-1.301781 -0.612603,-1.514491 -0.612603,-2.654613 0,-0.41691 0.5955862,-0.689178 0.8168039,-0.374368 1.2252059,-0.374368 z" style="fill:_ACCENT_;fill-opacity:.4;stroke-width:0" id="path842"/></g></g></svg>